<?xml version="1.0" encoding="UTF-8"?>
<svg xmlns="http://www.w3.org/2000/svg" xmlns:xlink="http://www.w3.org/1999/xlink" width="169pt" height="53pt" viewBox="0 0 169 53" version="1.1">
<g id="surface1">
<path style=" stroke:none;fill-rule:nonzero;fill:rgb(100%,35.294118%,37.254902%);fill-opacity:1;" d="M 89.066406 13.320312 C 89.066406 15.230469 87.535156 16.769531 85.636719 16.769531 C 83.734375 16.769531 82.207031 15.230469 82.207031 13.320312 C 82.207031 11.410156 83.683594 9.871094 85.636719 9.871094 C 87.589844 9.925781 89.066406 11.464844 89.066406 13.320312 Z M 74.921875 20.273438 L 74.921875 21.121094 C 74.921875 21.121094 73.285156 19 69.800781 19 C 64.050781 19 59.5625 23.40625 59.5625 29.507812 C 59.5625 35.558594 63.996094 40.015625 69.800781 40.015625 C 73.339844 40.015625 74.921875 37.839844 74.921875 37.839844 L 74.921875 38.742188 C 74.921875 39.164062 75.238281 39.484375 75.660156 39.484375 L 79.9375 39.484375 L 79.9375 19.527344 L 75.660156 19.527344 C 75.238281 19.53125 74.921875 19.902344 74.921875 20.273438 Z M 74.921875 33.0625 C 74.132812 34.230469 72.546875 35.238281 70.648438 35.238281 C 67.269531 35.238281 64.683594 33.117188 64.683594 29.507812 C 64.683594 25.898438 67.269531 23.777344 70.648438 23.777344 C 72.496094 23.777344 74.183594 24.835938 74.921875 25.953125 Z M 83.101562 19.53125 L 88.171875 19.53125 L 88.171875 39.484375 L 83.101562 39.484375 Z M 158.789062 19 C 155.308594 19 153.671875 21.121094 153.671875 21.121094 L 153.671875 9.925781 L 148.605469 9.925781 L 148.605469 39.484375 L 152.878906 39.484375 C 153.300781 39.484375 153.617188 39.113281 153.617188 38.742188 L 153.617188 37.839844 C 153.617188 37.839844 155.253906 40.015625 158.738281 40.015625 C 164.492188 40.015625 168.976562 35.558594 168.976562 29.507812 C 168.976562 23.457031 164.492188 19 158.789062 19 Z M 157.945312 35.1875 C 155.992188 35.1875 154.460938 34.179688 153.671875 33.011719 L 153.671875 25.898438 C 154.460938 24.835938 156.152344 23.722656 157.945312 23.722656 C 161.324219 23.722656 163.910156 25.84375 163.910156 29.453125 C 163.910156 33.0625 161.324219 35.1875 157.945312 35.1875 Z M 145.964844 27.648438 L 145.964844 39.539062 L 140.898438 39.539062 L 140.898438 28.234375 C 140.898438 24.945312 139.84375 23.617188 136.992188 23.617188 C 135.464844 23.617188 133.878906 24.414062 132.875 25.582031 L 132.875 39.484375 L 127.808594 39.484375 L 127.808594 19.53125 L 131.820312 19.53125 C 132.242188 19.53125 132.558594 19.902344 132.558594 20.273438 L 132.558594 21.121094 C 134.039062 19.582031 135.988281 19 137.941406 19 C 140.160156 19 142.007812 19.636719 143.484375 20.910156 C 145.277344 22.394531 145.964844 24.304688 145.964844 27.648438 Z M 115.511719 19 C 112.027344 19 110.390625 21.121094 110.390625 21.121094 L 110.390625 9.925781 L 105.324219 9.925781 L 105.324219 39.484375 L 109.597656 39.484375 C 110.019531 39.484375 110.339844 39.113281 110.339844 38.742188 L 110.339844 37.839844 C 110.339844 37.839844 111.972656 40.015625 115.457031 40.015625 C 121.210938 40.015625 125.695312 35.558594 125.695312 29.507812 C 125.75 23.457031 121.261719 19 115.511719 19 Z M 114.664062 35.1875 C 112.710938 35.1875 111.183594 34.179688 110.390625 33.011719 L 110.390625 25.898438 C 111.183594 24.835938 112.871094 23.722656 114.664062 23.722656 C 118.042969 23.722656 120.628906 25.84375 120.628906 29.453125 C 120.628906 33.0625 118.042969 35.1875 114.664062 35.1875 Z M 100.941406 19 C 102.472656 19 103.265625 19.265625 103.265625 19.265625 L 103.265625 23.988281 C 103.265625 23.988281 99.042969 22.554688 96.40625 25.578125 L 96.40625 39.539062 L 91.335938 39.539062 L 91.335938 19.53125 L 95.613281 19.53125 C 96.035156 19.53125 96.351562 19.902344 96.351562 20.273438 L 96.351562 21.121094 C 97.300781 20.007812 99.359375 19 100.941406 19 Z M 48.320312 37.679688 C 48.058594 37.042969 47.792969 36.355469 47.53125 35.769531 C 47.105469 34.816406 46.683594 33.910156 46.316406 33.0625 L 46.261719 33.011719 C 42.621094 25.050781 38.714844 16.984375 34.597656 9.023438 L 34.441406 8.703125 C 34.007812 7.878906 33.585938 7.046875 33.175781 6.210938 C 32.644531 5.253906 32.117188 4.246094 31.273438 3.289062 C 29.585938 1.167969 27.15625 0 24.570312 0 C 21.933594 0 19.558594 1.167969 17.816406 3.183594 C 17.023438 4.136719 16.445312 5.148438 15.917969 6.101562 C 15.503906 6.9375 15.082031 7.769531 14.648438 8.597656 L 14.492188 8.917969 C 10.425781 16.875 6.46875 24.941406 2.828125 32.902344 L 2.773438 33.007812 C 2.40625 33.859375 1.980469 34.761719 1.558594 35.714844 C 1.296875 36.300781 1.03125 36.9375 0.769531 37.625 C 0.0820312 39.589844 -0.128906 41.449219 0.136719 43.359375 C 0.714844 47.339844 3.355469 50.679688 6.996094 52.167969 C 8.371094 52.753906 9.792969 53.019531 11.273438 53.019531 C 11.695312 53.019531 12.222656 52.964844 12.644531 52.910156 C 14.386719 52.699219 16.179688 52.117188 17.921875 51.109375 C 20.085938 49.886719 22.144531 48.136719 24.46875 45.589844 C 26.789062 48.136719 28.902344 49.886719 31.011719 51.109375 C 32.753906 52.117188 34.546875 52.699219 36.289062 52.910156 C 36.710938 52.964844 37.242188 53.019531 37.664062 53.019531 C 39.140625 53.019531 40.617188 52.753906 41.9375 52.167969 C 45.632812 50.679688 48.21875 47.285156 48.800781 43.359375 C 49.21875 41.5 49.007812 39.644531 48.320312 37.679688 Z M 24.519531 40.441406 C 21.667969 36.832031 19.820312 33.433594 19.1875 30.570312 C 18.925781 29.347656 18.871094 28.289062 19.03125 27.332031 C 19.132812 26.484375 19.453125 25.738281 19.875 25.101562 C 20.878906 23.671875 22.566406 22.769531 24.519531 22.769531 C 26.472656 22.769531 28.214844 23.617188 29.164062 25.101562 C 29.585938 25.738281 29.902344 26.484375 30.007812 27.332031 C 30.167969 28.289062 30.113281 29.402344 29.851562 30.570312 C 29.214844 33.382812 27.367188 36.777344 24.519531 40.441406 Z M 45.578125 42.933594 C 45.207031 45.695312 43.359375 48.082031 40.773438 49.144531 C 39.507812 49.675781 38.136719 49.835938 36.761719 49.675781 C 35.445312 49.515625 34.125 49.089844 32.753906 48.296875 C 30.851562 47.230469 28.953125 45.589844 26.734375 43.144531 C 30.21875 38.847656 32.328125 34.921875 33.121094 31.417969 C 33.492188 29.773438 33.542969 28.289062 33.386719 26.90625 C 33.175781 25.578125 32.699219 24.359375 31.960938 23.296875 C 30.324219 20.910156 27.578125 19.53125 24.519531 19.53125 C 21.457031 19.53125 18.710938 20.964844 17.078125 23.296875 C 16.335938 24.359375 15.863281 25.578125 15.652344 26.90625 C 15.441406 28.289062 15.492188 29.824219 15.914062 31.417969 C 16.707031 34.921875 18.871094 38.902344 22.300781 43.199219 C 20.136719 45.640625 18.183594 47.285156 16.285156 48.347656 C 14.910156 49.144531 13.59375 49.570312 12.273438 49.726562 C 10.847656 49.886719 9.476562 49.675781 8.261719 49.195312 C 5.675781 48.136719 3.828125 45.746094 3.460938 42.988281 C 3.300781 41.660156 3.40625 40.335938 3.933594 38.847656 C 4.089844 38.316406 4.355469 37.785156 4.621094 37.152344 C 4.988281 36.300781 5.410156 35.398438 5.835938 34.496094 L 5.886719 34.390625 C 9.527344 26.484375 13.433594 18.417969 17.5 10.5625 L 17.65625 10.242188 C 18.078125 9.449219 18.5 8.597656 18.921875 7.800781 C 19.347656 6.953125 19.820312 6.15625 20.402344 5.464844 C 21.511719 4.195312 22.988281 3.503906 24.625 3.503906 C 26.261719 3.503906 27.738281 4.195312 28.847656 5.464844 C 29.425781 6.15625 29.902344 6.953125 30.324219 7.800781 C 30.746094 8.597656 31.167969 9.449219 31.589844 10.242188 L 31.75 10.5625 C 35.75 18.449219 39.605469 26.410156 43.308594 34.445312 L 43.308594 34.496094 C 43.730469 35.347656 44.101562 36.300781 44.523438 37.152344 C 44.785156 37.789062 45.050781 38.316406 45.207031 38.847656 C 45.628906 40.226562 45.789062 41.554688 45.578125 42.933594 Z M 45.578125 42.933594 "/>
</g>
</svg>
